# xmcd CD database file
#
# Track frame offsets:
#	150
#	17693
#	36317
#	55359
#	75600
#	88241
#	106590
#	117048
#	130012
#	142513
#	157164
#	174841
#	191968
#	206718
#	219678
#	233922
#
# Disc length: 3290 seconds
#
# Revision: 0
# Processed by: cddbd v1.4PL0 Copyright (c) Steve Scherf et al.
# Submitted via: CDex 1.50beta9
#
DISCID=d70cd810
DTITLE=Mr. Acker Bilk - 32 Golden Hits CD 2
DYEAR=1900
DGENRE=Jazz
TTITLE0=Memory
TTITLE1=Ships
TTITLE2=Hello
TTITLE3=Just Once
TTITLE4=Berliner Luft
TTITLE5=The White Cliffs Of Dover
TTITLE6=Home
TTITLE7=Down By The Old Mill Stream
TTITLE8=Maria Elena
TTITLE9=Stars And Stripes
TTITLE10=My Bucket's Got A Hole In It
TTITLE11=Stomp Off, Let's Go
TTITLE12=House Rent Stomp
TTITLE13=Stranger On The Shore
TTITLE14=Liza
TTITLE15=Sentimantal Journey
EXTD=
EXTT0=
EXTT1=
EXTT2=
EXTT3=
EXTT4=
EXTT5=
EXTT6=
EXTT7=
EXTT8=
EXTT9=
EXTT10=
EXTT11=
EXTT12=
EXTT13=
EXTT14=
EXTT15=
PLAYORDER=
